<svg width="39" height="39" viewBox="0 0 39 39" fill="none" xmlns="http://www.w3.org/2000/svg">
<path d="M18.2783 0.108521H20.919C21.5219 0.192897 22.1277 0.257165 22.7266 0.364645C26.1574 0.9814 29.2402 2.40275 31.8428 4.78439C37.0184 9.52255 39.1602 15.4641 38.1222 22.4905C37.3958 27.4125 35.0001 31.4405 31.1703 34.4971C26.5887 38.1525 21.3925 39.3568 15.7091 38.1886C12.0969 37.4453 8.98371 35.6774 6.37433 33.0105C3.57968 30.1577 1.80938 26.7355 1.11048 22.7476C0.991868 22.0726 0.91443 21.3906 0.816406 20.7115V18.0055C0.899726 17.3887 0.965386 16.7679 1.06929 16.1542C1.74467 12.1985 3.44049 8.7692 6.18613 5.9034C8.9847 2.98135 12.3557 1.13712 16.2963 0.411878C16.952 0.28933 17.6166 0.207965 18.2783 0.108521ZM21.219 16.107C21.219 15.2863 21.219 14.5129 21.219 13.7394C21.2249 13.0584 21.5738 12.7018 22.2404 12.6857C22.5707 12.6777 22.9001 12.6857 23.2304 12.6857H24.5694V8.89477C23.2559 8.89477 21.9718 8.85256 20.6916 8.90379C18.6331 8.98616 17.1177 10.3432 16.8246 12.4195C16.6746 13.4772 16.7266 14.5661 16.6923 15.6399C16.6923 15.7845 16.6766 15.9282 16.6658 16.113H14.5612V20.0406H16.6991V31.1502H21.2259V20.0245H24.2646C24.3959 18.7096 24.5243 17.4329 24.6567 16.107H21.219Z" fill="white"/>
</svg>
