<svg width="34" height="21" viewBox="0 0 34 21" fill="none" xmlns="http://www.w3.org/2000/svg">
<g clip-path="url(#clip0_1895_916)">
<path d="M6.74203 17.5222L14.852 10.3021L6.73539 3.07404L6.62877 3.11658C6.62877 3.51715 6.63543 3.9187 6.62877 4.31828C6.63168 4.50259 6.61121 4.68649 6.56786 4.86523C6.51867 5.02546 6.41793 5.16322 6.28257 5.25542C6.14721 5.34763 5.98546 5.38865 5.82443 5.37162C5.477 5.33799 5.1705 5.06501 5.16669 4.70895C5.15908 4.09475 5.12956 3.46671 5.23142 2.86734C5.46748 1.4698 6.62592 0.493577 7.99186 0.450058C8.08705 0.450058 8.18224 0.450058 8.27742 0.450058C15.6887 0.450058 23.0997 0.450058 30.5104 0.450058C31.9649 0.450058 33.0577 1.20966 33.4613 2.52708C33.5656 2.86707 33.6196 3.2216 33.6212 3.57847C33.632 8.05693 33.632 12.5357 33.6212 17.0148C33.6212 18.6151 32.674 19.8089 31.2281 20.1126C30.9941 20.1524 30.7569 20.1679 30.5199 20.159C23.0953 20.159 15.6707 20.1462 8.25172 20.1729C6.61259 20.1788 5.37706 19.0226 5.19049 17.6112C5.11529 17.0415 5.14289 16.454 5.16002 15.8754C5.1705 15.5382 5.46938 15.277 5.80254 15.2375C5.96312 15.2173 6.12554 15.2547 6.26284 15.3436C6.40014 15.4324 6.50405 15.5674 6.55737 15.7261C6.60182 15.8919 6.62299 16.0634 6.62021 16.2355C6.62878 16.6509 6.62021 17.0663 6.62021 17.4817L6.74203 17.5222ZM7.80339 1.99399C7.94617 2.12949 8.02231 2.20368 8.10132 2.2739L13.9459 7.47139C15.5609 8.90684 17.1762 10.3416 18.7919 11.7758C19.1583 12.1002 19.4905 12.1437 19.8266 11.9053C19.959 11.8023 20.0861 11.692 20.2073 11.575C23.1131 8.99355 26.0182 6.41179 28.9227 3.82969C29.589 3.23625 30.2496 2.64281 30.9807 1.99399H7.80339ZM7.79577 18.6013H30.9816L22.7831 11.2971C22.428 11.6166 22.1053 11.9063 21.7836 12.1971C21.4619 12.4879 21.1268 12.8044 20.7889 13.0952C19.9322 13.833 18.8318 13.8291 17.9856 13.0952C17.8133 12.9449 17.6448 12.7886 17.4745 12.6353L15.9905 11.301L7.79577 18.6013ZM32.1115 3.0058L23.9253 10.2971L32.1115 17.5875V3.0058Z" fill="#F5FBFE"/>
<path d="M4.77118 12.9617C3.70317 12.9617 2.63422 12.9676 1.56526 12.9617C0.994136 12.9567 0.635268 12.4672 0.817077 11.9439C0.940821 11.5899 1.21402 11.4276 1.56526 11.4266C3.71397 11.4227 5.86299 11.4227 8.01233 11.4266C8.48827 11.4266 8.79858 11.754 8.79858 12.1961C8.79858 12.659 8.48447 12.9587 7.97712 12.9617C6.90911 12.9646 5.84014 12.9617 4.77118 12.9617Z" fill="#F5FBFE"/>
<path d="M5.86913 9.17852C5.19234 9.17852 4.51555 9.17852 3.83781 9.17852C3.2981 9.17852 2.93926 8.84718 2.95354 8.38727C2.96781 7.93922 3.31714 7.64448 3.84448 7.64349C5.21011 7.64349 6.57606 7.64349 7.94232 7.64349C8.48013 7.64349 8.79901 7.93527 8.79901 8.411C8.79901 8.88674 8.46775 9.17753 7.94232 9.18248C7.24745 9.18248 6.56114 9.17852 5.86913 9.17852Z" fill="#F5FBFE"/>
</g>
<defs>
<clipPath id="clip0_1895_916">
<rect width="32.8655" height="19.7248" fill="white" transform="translate(0.769531 0.443146)"/>
</clipPath>
</defs>
</svg>
