<svg width="20" height="30" viewBox="0 0 20 30" fill="none" xmlns="http://www.w3.org/2000/svg">
<g clip-path="url(#clip0_35_323)">
<path d="M10.5494 0.46698C11.1242 0.580174 11.7147 0.640956 12.2729 0.814926C16.1367 2.02132 18.4792 4.64377 19.1806 8.68383C19.6377 11.3162 18.9385 13.7267 17.5575 15.9617C16.4686 17.7242 15.1655 19.3249 13.9148 20.9658C13.6945 21.2553 13.4719 21.5424 13.2404 21.8478C13.8743 21.9876 14.4783 22.0978 15.0688 22.2558C16.285 22.5802 17.4623 23.0041 18.4267 23.8663C18.9513 24.3328 19.3147 24.8904 19.302 25.6341C19.2908 26.3293 18.946 26.8573 18.4612 27.3055C17.6032 28.0956 16.5541 28.521 15.4637 28.8378C13.113 29.5215 10.7098 29.6833 8.27806 29.5382C6.56501 29.4364 4.88495 29.1644 3.26707 28.565C2.48173 28.2748 1.73835 27.9056 1.10664 27.3366C-0.0646199 26.2806 -0.0623623 24.9109 1.11639 23.8587C1.91896 23.1423 2.87965 22.7245 3.88904 22.4313C4.63092 22.2163 5.39451 22.0788 6.14837 21.9056C6.19109 21.8957 6.23156 21.8767 6.305 21.8509C5.80067 21.1975 5.31209 20.5662 4.82575 19.9342C3.72868 18.5074 2.61812 17.0914 1.71213 15.5279C0.649531 13.6925 0.106983 11.7211 0.243368 9.5894C0.414223 6.92439 1.48582 4.68177 3.45366 2.90409C4.93521 1.54822 6.80878 0.713213 8.79589 0.523197C8.85933 0.511312 8.92172 0.494297 8.98248 0.472303L10.5494 0.46698ZM9.78205 24.5729C9.81952 24.5242 9.85699 24.4748 9.8982 24.4209C11.2088 22.6827 12.5337 20.9559 13.8234 19.2026C14.8215 17.845 15.8384 16.4935 16.7324 15.0668C17.9756 13.0817 18.4455 10.9006 18.0228 8.54786C17.1888 3.90081 12.5869 0.778464 8.03004 1.78658C6.16882 2.18804 4.49616 3.21565 3.28377 4.70252C2.07138 6.18938 1.39048 8.04813 1.35168 9.97683C1.30972 11.756 1.79155 13.3955 2.67281 14.924C3.54806 16.4434 4.63015 17.8108 5.689 19.1927C7.0521 20.9742 8.40621 22.761 9.78205 24.5729ZM9.74983 28.4473C11.7379 28.4123 13.6825 28.2194 15.5626 27.5896C16.3712 27.3184 17.1611 26.9978 17.783 26.3741C18.3076 25.8522 18.3203 25.3158 17.7695 24.8319C17.3875 24.5006 16.9654 24.2198 16.5136 23.9962C15.2779 23.3816 13.9373 23.1272 12.5854 22.9395C12.4917 22.9266 12.3464 23.0216 12.2812 23.1097C11.624 23.994 10.9773 24.8866 10.3328 25.7792C9.95216 26.3044 9.57472 26.3067 9.20054 25.7861C8.55608 24.8919 7.90564 24.0016 7.26119 23.1082C7.17426 22.9866 7.09708 22.8985 6.92172 22.9342C6.25554 23.0702 5.57961 23.1621 4.91942 23.3254C3.89204 23.5769 2.89613 23.9188 2.03361 24.5736C1.13437 25.2573 1.11264 25.9798 2.03361 26.6164C2.59016 26.9945 3.19103 27.3007 3.82234 27.5281C5.74371 28.2293 7.74902 28.4101 9.75133 28.4465L9.74983 28.4473Z" fill="#F5FBFE"/>
<path d="M13.6917 10.1401C13.69 10.9279 13.4578 11.6974 13.0244 12.3513C12.5911 13.0052 11.976 13.514 11.2572 13.8133C10.5384 14.1126 9.74813 14.1889 8.98651 14.0325C8.22489 13.8761 7.52618 13.4941 6.97886 12.9349C6.43154 12.3757 6.06024 11.6644 5.91197 10.891C5.7637 10.1177 5.84515 9.3172 6.14598 8.59084C6.44681 7.86448 6.9535 7.24496 7.60188 6.81075C8.25027 6.37654 9.01119 6.14717 9.78825 6.15168C10.303 6.15337 10.8123 6.2579 11.2871 6.45932C11.762 6.66074 12.193 6.95508 12.5555 7.32551C12.9181 7.69594 13.205 8.13518 13.4 8.61812C13.5949 9.10107 13.6941 9.61826 13.6917 10.1401ZM9.75602 7.28818C8.22207 7.29729 6.95415 8.59182 6.96165 10.1408C6.96914 11.6898 8.24979 12.9836 9.7755 12.9745C11.3012 12.9654 12.5789 11.6678 12.5699 10.1211C12.5609 8.57434 11.2825 7.27906 9.75602 7.28818Z" fill="#F5FBFE"/>
<path d="M17.0531 9.88708C17.0531 9.98204 17.0531 10.077 17.0531 10.1712C17.0411 10.5131 16.8081 10.7531 16.4919 10.7516C16.1756 10.7501 15.9411 10.51 15.9358 10.1666C15.9342 9.24656 15.7363 8.33772 15.3558 7.50241C14.6394 5.97086 13.4959 4.89817 11.938 4.28205C11.579 4.13999 11.4074 3.9022 11.4636 3.61124C11.5385 3.23139 11.8885 3.04451 12.2879 3.19417C14.0219 3.85054 15.3273 5.01136 16.2063 6.65838C16.7338 7.65266 17.0238 8.75852 17.0531 9.88708Z" fill="#F5FBFE"/>
<path d="M9.81404 3.87486C9.73894 3.8765 9.66428 3.86278 9.5945 3.83455C9.52473 3.80632 9.46127 3.76416 9.40791 3.71055C9.35456 3.65693 9.31239 3.59296 9.28393 3.52248C9.25547 3.45199 9.24128 3.37642 9.24223 3.30026C9.24319 3.22411 9.25927 3.14893 9.28949 3.0792C9.31971 3.00947 9.36347 2.94662 9.41816 2.89439C9.47284 2.84217 9.53732 2.80165 9.60779 2.77523C9.67825 2.74881 9.75323 2.73704 9.82828 2.74062C9.97326 2.74754 10.1099 2.81127 10.2094 2.91837C10.309 3.02548 10.3636 3.16758 10.3617 3.31471C10.3599 3.46184 10.3017 3.60248 10.1995 3.70698C10.0974 3.81149 9.95915 3.87168 9.81404 3.87486Z" fill="#F5FBFE"/>
</g>
<defs>
<clipPath id="clip0_35_323">
<rect width="19.0998" height="29.1176" fill="white" transform="translate(0.21875 0.463837)"/>
</clipPath>
</defs>
</svg>
