<svg width="39" height="39" viewBox="0 0 39 39" fill="none" xmlns="http://www.w3.org/2000/svg">
<path d="M0.632812 20.7116V18.004C0.713132 17.4012 0.772882 16.7923 0.87769 16.1955C1.63093 11.8533 3.5488 8.15101 6.72535 5.16509C9.35344 2.66423 12.6381 1.00764 16.1737 0.399869C16.8074 0.287345 17.447 0.20497 18.0827 0.108521H20.7274C21.3288 0.191909 21.9351 0.254204 22.5326 0.363715C27.4037 1.26793 31.3894 3.69925 34.369 7.75114C37.6994 12.2783 38.8483 17.3961 37.8404 22.9601C36.9843 27.6821 34.6678 31.5743 30.9623 34.523C26.6417 37.96 21.7275 39.2259 16.3324 38.3509C12.6749 37.7581 9.46309 36.1406 6.73319 33.5595C3.62358 30.6252 1.68968 27.0203 0.931544 22.7451C0.809105 22.0689 0.729784 21.3887 0.632812 20.7116ZM19.3816 28.9862C20.6158 28.9862 21.849 28.9952 23.0822 28.9862C23.4728 28.9861 23.8624 28.9474 24.2458 28.8707C26.96 28.293 28.777 26.0123 28.7868 23.1711C28.796 20.6259 28.796 18.0827 28.7868 15.5415C28.7878 15.1658 28.7527 14.7909 28.682 14.4223C28.1198 11.6092 25.8845 9.74143 23.0724 9.7364C20.6295 9.73239 18.1866 9.73239 15.7437 9.7364C15.3529 9.73405 14.9629 9.77074 14.579 9.84592C11.8492 10.4216 10.0273 12.7133 10.0204 15.5726C10.0145 18.1038 10.0145 20.6346 10.0204 23.165C10.0188 23.5533 10.0553 23.9407 10.1291 24.3214C10.6953 27.1195 12.9286 28.9802 15.7123 28.9892C16.9387 28.9862 18.1601 28.9862 19.3816 28.9862Z" fill="white"/>
<path d="M26.7466 19.3757C26.7466 20.7263 26.7821 22.0769 26.738 23.4255C26.6775 25.26 25.1756 26.829 23.3866 26.8614C20.7302 26.9106 18.0727 26.9106 15.4143 26.8614C13.6734 26.8309 12.1263 25.2482 12.0966 23.4697C12.0511 20.7345 12.0511 17.9983 12.0966 15.2611C12.1263 13.4639 13.6878 11.8851 15.4431 11.8586C18.0766 11.8192 20.7103 11.8192 23.3444 11.8586C25.1515 11.8861 26.6765 13.4472 26.737 15.2935C26.7821 16.651 26.7466 18.0143 26.7466 19.3757ZM14.6676 19.3521C14.6661 20.3149 14.9433 21.2565 15.4642 22.0577C15.9851 22.859 16.7262 23.4838 17.5937 23.8531C18.4612 24.2224 19.4161 24.3196 20.3375 24.1323C21.2589 23.9451 22.1054 23.4818 22.7698 22.8012C23.4342 22.1207 23.8867 21.2533 24.0699 20.309C24.2532 19.3647 24.1589 18.3859 23.7992 17.4966C23.4394 16.6072 22.8302 15.8472 22.0488 15.3129C21.2674 14.7785 20.3489 14.4938 19.4096 14.4948C18.787 14.4943 18.1704 14.6195 17.595 14.8634C17.0196 15.1073 16.4968 15.465 16.0564 15.9161C15.616 16.3672 15.2667 16.9029 15.0284 17.4925C14.7901 18.082 14.6675 18.714 14.6676 19.3521V19.3521ZM25.3684 14.4741C25.3631 14.1553 25.2344 13.8518 25.0107 13.6302C24.787 13.4087 24.4866 13.2873 24.1755 13.2927C23.8645 13.2982 23.5683 13.4301 23.3522 13.6594C23.136 13.8887 23.0176 14.1966 23.0229 14.5154C23.0283 14.8342 23.1569 15.1378 23.3806 15.3594C23.6044 15.5809 23.9048 15.7023 24.2158 15.6968C24.5269 15.6913 24.823 15.5594 25.0392 15.3301C25.2554 15.1008 25.3738 14.7929 25.3684 14.4741V14.4741Z" fill="white"/>
<path d="M19.4176 21.8752C18.9325 21.8759 18.4582 21.7288 18.0547 21.4528C17.6512 21.1767 17.3367 20.7839 17.1512 20.3244C16.9656 19.8649 16.9173 19.3592 17.0123 18.8715C17.1074 18.3837 17.3416 17.9359 17.6852 17.5848C18.0288 17.2337 18.4663 16.9951 18.9423 16.8992C19.4183 16.8034 19.9114 16.8546 20.3589 17.0464C20.8065 17.2381 21.1885 17.5618 21.4564 17.9764C21.7244 18.3911 21.8663 18.8779 21.864 19.3753C21.856 20.0372 21.5955 20.6696 21.1382 21.1369C20.6809 21.6042 20.0633 21.8692 19.4176 21.8752V21.8752Z" fill="white"/>
</svg>
