<svg width="40" height="41" viewBox="0 0 40 41" fill="none" xmlns="http://www.w3.org/2000/svg">
<path d="M39.4972 19.3176V22.0908C39.4725 22.202 39.4385 22.3116 39.42 22.4243C39.3297 23.0842 39.2818 23.7519 39.1514 24.4033C38.1852 29.2489 35.7819 33.2409 31.8753 36.2627C27.1977 39.8803 21.8903 41.1307 16.0844 40.0748C11.8398 39.303 8.22872 37.2838 5.3192 34.0992C1.13706 29.5191 -0.539193 24.1031 0.246454 17.9677C0.735746 14.1486 2.29777 10.7671 4.82449 7.85648C7.89068 4.32298 11.7278 2.11549 16.3437 1.29116C17.0221 1.16998 17.7074 1.0874 18.3896 0.987061H21.1626C21.78 1.07042 22.4051 1.13449 23.0209 1.241C26.5957 1.85848 29.7869 3.31493 32.5421 5.68218C36.1223 8.75876 38.3557 12.6203 39.1923 17.2753C39.3173 17.9491 39.3976 18.6376 39.4972 19.3176ZM21.4921 30.7772V30.2963C21.4921 27.7932 21.4967 25.2901 21.4921 22.7871C21.4921 22.0152 21.6465 21.309 22.162 20.7146C22.8566 19.9135 23.7317 19.6379 24.7582 19.8656C25.6966 20.0725 26.1782 20.7355 26.3958 21.6146C26.4918 21.9865 26.5436 22.3683 26.5502 22.7523C26.5656 25.2809 26.561 27.8095 26.5633 30.3388V30.7803H31.3482V30.3118C31.3482 28.0395 31.3559 25.7671 31.3435 23.4956C31.3397 22.6751 31.349 21.8477 31.2479 21.0373C30.9392 18.5712 29.5677 16.2997 26.3619 16.0388C24.4842 15.8844 22.8967 16.4517 21.763 18.0379C21.7013 18.1243 21.6287 18.2038 21.4913 18.3713V16.3885H16.7265V30.7795L21.4921 30.7772ZM9.27908 16.3815V30.7764H14.0053V16.3815H9.27908ZM11.7803 9.38088C9.88336 9.36698 8.63774 10.8026 9.03751 12.449C9.2837 13.4632 9.94279 14.0845 10.9384 14.2852C12.0528 14.5098 13.1039 14.333 13.8517 13.3736C14.4853 12.5601 14.5162 11.6408 14.0732 10.7324C13.5986 9.7614 12.7242 9.42873 11.7803 9.38088Z" fill="white"/>
</svg>
