<svg width="38" height="39" viewBox="0 0 38 39" fill="none" xmlns="http://www.w3.org/2000/svg">
<g clip-path="url(#clip0_1085_1881)">
<path d="M22.1795 15.3958C22.179 16.0181 22.0029 16.6263 21.6737 17.1434C21.3445 17.6605 20.8768 18.0633 20.3298 18.3009C19.7829 18.5385 19.1812 18.6002 18.6009 18.4782C18.0206 18.3563 17.4877 18.0561 17.0697 17.6156C16.6516 17.1752 16.3672 16.6142 16.2523 16.0038C16.1374 15.3933 16.1972 14.7607 16.4242 14.186C16.6511 13.6113 17.0351 13.1203 17.5274 12.775C18.0198 12.4298 18.5985 12.2458 19.1902 12.2464C19.9833 12.2488 20.7432 12.5815 21.3035 13.1718C21.8638 13.7621 22.1788 14.5618 22.1795 15.3958Z" fill="white"/>
<path d="M25.4905 11.1877C24.9038 10.1891 24.1074 9.34499 23.1626 8.71994C22.2177 8.09489 21.1493 7.70553 20.0393 7.58166C18.3347 7.34603 16.6067 7.76741 15.1747 8.76787C14.3458 9.32253 13.6292 10.0438 13.0661 10.8905C12.503 11.7371 12.1044 12.6923 11.8932 13.7013C11.682 14.7103 11.6624 15.7532 11.8354 16.7702C12.0085 17.7872 12.3708 18.7583 12.9017 19.6276C14.9961 23.1606 17.0773 26.6925 19.1453 30.2234C19.1876 30.2946 19.2356 30.3658 19.2892 30.4518L19.3822 30.3006L25.5667 19.4408C26.2273 18.306 26.5966 17.0103 26.6383 15.6805C26.7113 14.0936 26.3099 12.5225 25.4905 11.1877V11.1877ZM19.1989 20.0843C18.3099 20.0896 17.4395 19.8169 16.6983 19.3008C15.957 18.7847 15.3784 18.0486 15.0359 17.1859C14.6934 16.3232 14.6024 15.373 14.7746 14.4558C14.9468 13.5387 15.3744 12.6961 16.003 12.0351C16.6316 11.374 17.4329 10.9244 18.3051 10.7433C19.1772 10.5622 20.0809 10.6579 20.9012 11.018C21.7216 11.3782 22.4216 11.9867 22.9124 12.7662C23.4031 13.5457 23.6625 14.461 23.6575 15.3958C23.6567 16.6401 23.1871 17.8334 22.3515 18.7144C21.5158 19.5954 20.3822 20.0922 19.1989 20.0962V20.0843Z" fill="white"/>
<path d="M19.1858 0.108521C15.5642 0.108521 12.024 1.23782 9.01285 3.3536C6.00166 5.46939 3.65473 8.47662 2.26883 11.995C0.882933 15.5135 0.52032 19.3851 1.22684 23.1202C1.93337 26.8553 3.67729 30.2863 6.23809 32.9791C8.7989 35.672 12.0616 37.5059 15.6135 38.2489C19.1654 38.9918 22.8471 38.6105 26.193 37.1531C29.5388 35.6958 32.3986 33.2278 34.4106 30.0613C36.4226 26.8948 37.4965 23.172 37.4965 19.3637C37.4965 14.2569 35.5674 9.35926 32.1334 5.74822C28.6995 2.13717 24.0421 0.108521 19.1858 0.108521V0.108521ZM28.1141 16.2439C27.9729 17.749 27.505 19.1998 26.7464 20.4846C24.5242 24.3675 22.3066 28.2524 20.0938 32.1392C19.9279 32.3712 19.7388 32.584 19.5298 32.7738H19.0814C18.8179 32.5978 18.6038 32.3511 18.461 32.0591C16.1937 28.2059 13.9216 24.3507 11.6449 20.4935C10.5221 18.6688 10.0375 16.4903 10.2743 14.3312C10.4944 12.1323 11.4581 10.0896 12.99 8.5751C14.1891 7.34094 15.7024 6.4984 17.3471 6.1493C18.7194 5.84683 20.1401 5.88708 21.495 6.26682C22.8498 6.64656 24.1011 7.35518 25.1483 8.33578C26.1954 9.31637 27.0092 10.5416 27.5243 11.913C28.0394 13.2844 28.2414 14.7637 28.1141 16.2321V16.2439Z" fill="white"/>
</g>
<defs>
<clipPath id="clip0_1085_1881">
<rect width="36.6215" height="38.5103" fill="white" transform="translate(0.875 0.108521)"/>
</clipPath>
</defs>
</svg>
