<svg id="Layer_1" data-name="Layer 1" xmlns="http://www.w3.org/2000/svg" xmlns:xlink="http://www.w3.org/1999/xlink" viewBox="0 0 573.96 227.74"><defs><style>.cls-1{fill:url(#linear-gradient);}.cls-2{fill:url(#linear-gradient-2);}.cls-3{fill:url(#linear-gradient-3);}.cls-4{fill:url(#linear-gradient-4);}.cls-5{fill:url(#linear-gradient-5);}.cls-6{fill:url(#linear-gradient-6);}.cls-7{fill:url(#linear-gradient-7);}.cls-8{fill:url(#linear-gradient-8);}.cls-9{fill:url(#linear-gradient-9);}.cls-10{fill:url(#linear-gradient-10);}.cls-11{fill:url(#linear-gradient-11);}.cls-12{fill:url(#linear-gradient-12);}.cls-13{fill:url(#linear-gradient-13);}.cls-14{fill:url(#linear-gradient-14);}.cls-15{fill:url(#linear-gradient-15);}.cls-16{fill:url(#linear-gradient-16);}.cls-17{fill:url(#linear-gradient-17);}.cls-18{fill:url(#linear-gradient-18);}.cls-19{fill:#4473b8;}.cls-20{clip-path:url(#clip-path);}.cls-21{fill:url(#linear-gradient-20);}.cls-22{clip-path:url(#clip-path-2);}.cls-23{fill:url(#linear-gradient-22);}.cls-24{clip-path:url(#clip-path-3);}.cls-25{fill:url(#linear-gradient-24);}.cls-26{clip-path:url(#clip-path-4);}.cls-27{fill:url(#linear-gradient-26);}.cls-28{clip-path:url(#clip-path-5);}.cls-29{fill:url(#linear-gradient-28);}.cls-30{clip-path:url(#clip-path-6);}.cls-31{fill:url(#linear-gradient-30);}.cls-32{clip-path:url(#clip-path-7);}.cls-33{fill:url(#linear-gradient-32);}.cls-34{clip-path:url(#clip-path-8);}.cls-35{fill:url(#linear-gradient-34);}.cls-36{clip-path:url(#clip-path-9);}.cls-37{fill:url(#linear-gradient-36);}.cls-38{clip-path:url(#clip-path-10);}.cls-39{fill:url(#linear-gradient-38);}.cls-40{clip-path:url(#clip-path-11);}.cls-41{fill:url(#linear-gradient-40);}.cls-42{clip-path:url(#clip-path-12);}.cls-43{fill:url(#linear-gradient-42);}.cls-44{clip-path:url(#clip-path-13);}.cls-45{fill:url(#linear-gradient-44);}.cls-46{clip-path:url(#clip-path-14);}.cls-47{fill:url(#linear-gradient-46);}.cls-48{clip-path:url(#clip-path-15);}.cls-49{fill:url(#linear-gradient-48);}.cls-50{clip-path:url(#clip-path-16);}.cls-51{fill:url(#linear-gradient-50);}.cls-52{clip-path:url(#clip-path-17);}.cls-53{fill:url(#linear-gradient-52);}.cls-54{clip-path:url(#clip-path-18);}.cls-55{fill:url(#linear-gradient-54);}</style><linearGradient id="linear-gradient" x1="-252.3" y1="186.92" x2="190.88" y2="186.92" gradientUnits="userSpaceOnUse"><stop offset="1" stop-color="#26af4b"/><stop offset="1" stop-color="#72c069"/></linearGradient><linearGradient id="linear-gradient-2" x1="-209.43" y1="189.84" x2="236.82" y2="189.84" xlink:href="#linear-gradient"/><linearGradient id="linear-gradient-3" x1="158.64" y1="186.14" x2="599.84" y2="186.14" xlink:href="#linear-gradient"/><linearGradient id="linear-gradient-4" x1="223.7" y1="186.92" x2="664.75" y2="186.92" xlink:href="#linear-gradient"/><linearGradient id="linear-gradient-5" x1="265.98" y1="189.84" x2="712.25" y2="189.84" xlink:href="#linear-gradient"/><linearGradient id="linear-gradient-6" x1="310.56" y1="189.65" x2="745.92" y2="189.65" xlink:href="#linear-gradient"/><linearGradient id="linear-gradient-7" x1="335.12" y1="187.22" x2="769.19" y2="187.22" xlink:href="#linear-gradient"/><linearGradient id="linear-gradient-8" x1="371.02" y1="189.65" x2="815.96" y2="189.65" xlink:href="#linear-gradient"/><linearGradient id="linear-gradient-9" x1="418.01" y1="189.84" x2="863.87" y2="189.84" xlink:href="#linear-gradient"/><linearGradient id="linear-gradient-10" x1="457.55" y1="189.65" x2="892.92" y2="189.65" xlink:href="#linear-gradient"/><linearGradient id="linear-gradient-11" x1="-160.62" y1="190.01" x2="284.34" y2="190.01" xlink:href="#linear-gradient"/><linearGradient id="linear-gradient-12" x1="-114.37" y1="189.65" x2="320.99" y2="189.65" xlink:href="#linear-gradient"/><linearGradient id="linear-gradient-13" x1="-64.26" y1="186.92" x2="374.06" y2="186.92" xlink:href="#linear-gradient"/><linearGradient id="linear-gradient-14" x1="-11.2" y1="185.91" x2="380.33" y2="185.91" xlink:href="#linear-gradient"/><linearGradient id="linear-gradient-15" x1="-10.29" y1="189.65" x2="434.65" y2="189.65" xlink:href="#linear-gradient"/><linearGradient id="linear-gradient-16" x1="31.99" y1="187.22" x2="466.08" y2="187.22" xlink:href="#linear-gradient"/><linearGradient id="linear-gradient-17" x1="63.14" y1="189.84" x2="509.01" y2="189.84" xlink:href="#linear-gradient"/><linearGradient id="linear-gradient-18" x1="109.74" y1="189.84" x2="555.4" y2="189.84" xlink:href="#linear-gradient"/><clipPath id="clip-path"><polygon class="cls-1" points="120.62 173.59 113.72 187.44 106.77 173.59 103.76 173.59 112.38 189.87 112.38 200.25 115.05 200.25 115.05 189.87 123.6 173.59 120.62 173.59"/></clipPath><linearGradient id="linear-gradient-20" x1="-11.35" y1="541.21" x2="-6.54" y2="541.21" gradientTransform="matrix(-94.95, 0, 0, 94.95, -587.64, -51202.55)" xlink:href="#linear-gradient"/><clipPath id="clip-path-2"><path class="cls-2" d="M132.81,197.29a6.89,6.89,0,0,1-2.79-2.82,10.73,10.73,0,0,1,0-9.26,6.88,6.88,0,0,1,2.8-2.83,8.29,8.29,0,0,1,7.63,0,7,7,0,0,1,2.82,2.83,9.27,9.27,0,0,1,1.08,4.63,9.09,9.09,0,0,1-1.1,4.63,7,7,0,0,1-2.83,2.82,8,8,0,0,1-3.81.93,7.8,7.8,0,0,1-3.8-.93m-1.43-16.85a9.58,9.58,0,0,0-3.74,3.73,12.4,12.4,0,0,0,0,11.33,9.42,9.42,0,0,0,3.7,3.73,10.57,10.57,0,0,0,5.29,1.33,10.89,10.89,0,0,0,5.33-1.33,9.53,9.53,0,0,0,3.78-3.75,12.4,12.4,0,0,0,0-11.31,9.26,9.26,0,0,0-3.74-3.73,10.78,10.78,0,0,0-5.31-1.32,10.66,10.66,0,0,0-5.3,1.32"/></clipPath><linearGradient id="linear-gradient-22" x1="-11.35" y1="541.24" x2="-6.54" y2="541.24" gradientTransform="matrix(-94.95, 0, 0, 94.95, -587.09, -51202.34)" xlink:href="#linear-gradient"/><clipPath id="clip-path-3"><path class="cls-11" d="M167.34,179.42v11.33a7.92,7.92,0,0,1-1.79,5.61,6.3,6.3,0,0,1-4.81,1.91,6,6,0,0,1-4.63-1.8,7.25,7.25,0,0,1-1.7-5.18V179.42h-2.64v12.17c0,2.92.8,5.16,2.37,6.69a8.34,8.34,0,0,0,6.11,2.31,9,9,0,0,0,4.27-1,6.46,6.46,0,0,0,2.82-3v3.66H170V179.42Z"/></clipPath><linearGradient id="linear-gradient-24" x1="-11.35" y1="541.25" x2="-6.54" y2="541.25" gradientTransform="matrix(-94.95, 0, 0, 94.95, -586.82, -51202.76)" xlink:href="#linear-gradient"/><clipPath id="clip-path-4"><path class="cls-12" d="M181.47,180.11a6.55,6.55,0,0,0-2.69,3v-3.7h-2.67v20.83h2.67V188.62c0-2.44.58-4.19,1.75-5.23a6.78,6.78,0,0,1,4.66-1.56h.72V179a8.64,8.64,0,0,0-4.44,1.07"/></clipPath><linearGradient id="linear-gradient-26" x1="-11.35" y1="541.25" x2="-6.54" y2="541.25" gradientTransform="matrix(-94.95, 0, 0, 94.95, -587.73, -51203.16)" xlink:href="#linear-gradient"/><clipPath id="clip-path-5"><polygon class="cls-13" points="200.37 173.59 200.37 200.25 203.04 200.25 203.04 187.97 212.96 187.97 212.96 185.76 203.04 185.76 203.04 175.8 214.78 175.8 214.78 173.59 200.37 173.59"/></clipPath><linearGradient id="linear-gradient-28" x1="-11.35" y1="541.23" x2="-6.54" y2="541.23" gradientTransform="matrix(-94.95, 0, 0, 94.95, -586.87, -51204.25)" xlink:href="#linear-gradient"/><clipPath id="clip-path-6"><path class="cls-14" d="M219.17,200.25h2.67V179.42h-2.67Zm0-28.13a1.87,1.87,0,0,0-.57,1.39,1.9,1.9,0,0,0,.57,1.41,1.92,1.92,0,0,0,2.75,0,1.9,1.9,0,0,0,.57-1.41,1.87,1.87,0,0,0-.57-1.39,2,2,0,0,0-2.75,0"/></clipPath><linearGradient id="linear-gradient-30" x1="-11.35" y1="541.22" x2="-6.54" y2="541.22" gradientTransform="matrix(-94.95, 0, 0, 94.95, -587.66, -51204.64)" xlink:href="#linear-gradient"/><clipPath id="clip-path-7"><path class="cls-15" d="M233.43,180.06a6.81,6.81,0,0,0-2.86,2.91v-3.55H227.9v20.83h2.67V188.88a7.87,7.87,0,0,1,1.8-5.6,6.23,6.23,0,0,1,4.8-1.91,6,6,0,0,1,4.64,1.8,7.25,7.25,0,0,1,1.69,5.18v11.9h2.63v-12.2c0-2.93-.78-5.16-2.37-6.7a8.31,8.31,0,0,0-6.09-2.31,8.72,8.72,0,0,0-4.24,1"/></clipPath><linearGradient id="linear-gradient-32" x1="-11.35" y1="541.26" x2="-6.54" y2="541.26" gradientTransform="matrix(-94.95, 0, 0, 94.95, -586.56, -51204.16)" xlink:href="#linear-gradient"/><clipPath id="clip-path-8"><path class="cls-16" d="M252.81,174.2v5.22h-2.9v2.26h2.9V194.6c0,2,.45,3.45,1.37,4.33a5.86,5.86,0,0,0,4.2,1.32h2.86V198H258.8a3.57,3.57,0,0,1-2.56-.73,3.66,3.66,0,0,1-.73-2.63V181.68h5.73v-2.26h-5.73V174.2Z"/></clipPath><linearGradient id="linear-gradient-34" x1="-10.42" y1="541.24" x2="-5.61" y2="541.24" gradientTransform="matrix(-94.95, 0, 0, 94.95, -587.6, -51204.99)" xlink:href="#linear-gradient"/><clipPath id="clip-path-9"><path class="cls-17" d="M269.43,183.32a7.3,7.3,0,0,1,5.07-1.91,8.08,8.08,0,0,1,3.67.84,6.27,6.27,0,0,1,2.65,2.48,7.31,7.31,0,0,1,.93,4H267.11a7.62,7.62,0,0,1,2.32-5.37m-.11-2.9a9,9,0,0,0-3.62,3.74,11.93,11.93,0,0,0-1.3,5.68,11.63,11.63,0,0,0,1.32,5.66,9.27,9.27,0,0,0,3.64,3.73,10.49,10.49,0,0,0,5.26,1.33,9.91,9.91,0,0,0,6.27-1.93,8.76,8.76,0,0,0,3.26-5h-2.82a5.93,5.93,0,0,1-2.34,3.4,7.42,7.42,0,0,1-4.37,1.25,8,8,0,0,1-3.66-.85,6.81,6.81,0,0,1-2.71-2.54,8.4,8.4,0,0,1-1.14-4h17.27a18.85,18.85,0,0,0,.08-2.1,10,10,0,0,0-1.2-4.87,9,9,0,0,0-3.43-3.48,10.13,10.13,0,0,0-5.21-1.3,10.62,10.62,0,0,0-5.3,1.3"/></clipPath><linearGradient id="linear-gradient-36" x1="-11.35" y1="541.27" x2="-6.54" y2="541.27" gradientTransform="matrix(-94.95, 0, 0, 94.95, -587.22, -51204.8)" xlink:href="#linear-gradient"/><clipPath id="clip-path-10"><path class="cls-18" d="M293,180.44a9.26,9.26,0,0,0-3.58,3.73,13,13,0,0,0,0,11.33,9.26,9.26,0,0,0,3.58,3.73,10.3,10.3,0,0,0,5.23,1.33,10,10,0,0,0,6.33-1.95,8.74,8.74,0,0,0,3.24-5.15H305a5.9,5.9,0,0,1-2.31,3.56,7.3,7.3,0,0,1-4.41,1.28,7.51,7.51,0,0,1-3.77-1,6.64,6.64,0,0,1-2.65-2.86,10,10,0,0,1-1-4.65,9.85,9.85,0,0,1,1-4.63,6.67,6.67,0,0,1,2.65-2.85,7.51,7.51,0,0,1,3.77-1,7.37,7.37,0,0,1,4.41,1.28,5.89,5.89,0,0,1,2.31,3.52h2.85a8.64,8.64,0,0,0-3.22-5.18,10.12,10.12,0,0,0-6.35-1.91,10.29,10.29,0,0,0-5.23,1.32"/></clipPath><linearGradient id="linear-gradient-38" x1="-11.35" y1="541.27" x2="-6.54" y2="541.27" gradientTransform="matrix(-94.95, 0, 0, 94.95, -587.07, -51205.22)" xlink:href="#linear-gradient"/><clipPath id="clip-path-11"><path class="cls-3" d="M312.73,172v28.22h2.66V188.88a7.87,7.87,0,0,1,1.8-5.6,6.23,6.23,0,0,1,4.8-1.91,6,6,0,0,1,4.63,1.8,7.25,7.25,0,0,1,1.7,5.18v11.9H331v-12.2a10.41,10.41,0,0,0-1.09-5,7.09,7.09,0,0,0-3-3,9.58,9.58,0,0,0-8.58.05,6.9,6.9,0,0,0-2.92,2.89V172Z"/></clipPath><linearGradient id="linear-gradient-40" x1="-11.35" y1="541.24" x2="-6.54" y2="541.24" gradientTransform="matrix(-94.95, 0, 0, 94.95, -586.47, -51206.43)" xlink:href="#linear-gradient"/><clipPath id="clip-path-12"><path class="cls-4" d="M348.17,175.84h5.37q3.29,0,4.77,1.37a5.25,5.25,0,0,1,1.49,4c0,3.56-2.08,5.33-6.26,5.33h-5.37Zm-2.68-2.25v26.66h2.68V188.88h5.37c3,0,5.25-.69,6.75-2.09a7.94,7.94,0,0,0,0-11.1q-2.26-2.1-6.73-2.1Z"/></clipPath><linearGradient id="linear-gradient-42" x1="-11.33" y1="541.26" x2="-6.52" y2="541.26" gradientTransform="matrix(-94.95, 0, 0, 94.95, -587.02, -51206.86)" xlink:href="#linear-gradient"/><clipPath id="clip-path-13"><path class="cls-5" d="M372.27,197.21a7.13,7.13,0,0,1-2.77-2.93,9.58,9.58,0,0,1-1-4.48,9.41,9.41,0,0,1,1-4.48,7.06,7.06,0,0,1,2.77-2.88,7.93,7.93,0,0,1,4-1,7.65,7.65,0,0,1,3.9,1,7.44,7.44,0,0,1,2.81,2.94,10,10,0,0,1,0,8.85,7.37,7.37,0,0,1-2.81,2.94,7.65,7.65,0,0,1-3.9,1,7.74,7.74,0,0,1-4-1m-1.66-16.77a9.19,9.19,0,0,0-3.55,3.73,13.07,13.07,0,0,0,0,11.28,9.36,9.36,0,0,0,3.55,3.77,9.85,9.85,0,0,0,5.09,1.34,9.26,9.26,0,0,0,5.14-1.4,8.36,8.36,0,0,0,3.14-3.53v4.62h2.67V179.42H384V184a8,8,0,0,0-3.11-3.51,9.4,9.4,0,0,0-5.13-1.37,10,10,0,0,0-5.13,1.32"/></clipPath><linearGradient id="linear-gradient-44" x1="-11.33" y1="541.28" x2="-6.52" y2="541.28" gradientTransform="matrix(-94.95, 0, 0, 94.95, -587.25, -51206.61)" xlink:href="#linear-gradient"/><clipPath id="clip-path-14"><path class="cls-6" d="M398.11,180.11a6.55,6.55,0,0,0-2.69,3v-3.7h-2.67v20.83h2.67V188.62c0-2.44.58-4.19,1.75-5.23a6.74,6.74,0,0,1,4.65-1.56h.73V179a8.61,8.61,0,0,0-4.44,1.07"/></clipPath><linearGradient id="linear-gradient-46" x1="-11.33" y1="541.29" x2="-6.52" y2="541.29" gradientTransform="matrix(-94.95, 0, 0, 94.95, -587.68, -51207.02)" xlink:href="#linear-gradient"/><clipPath id="clip-path-15"><path class="cls-7" d="M407.32,174.2v5.22h-2.9v2.26h2.9V194.6c0,2,.46,3.45,1.37,4.33a5.85,5.85,0,0,0,4.19,1.32h2.86V198H413.3a3.56,3.56,0,0,1-2.55-.73,3.66,3.66,0,0,1-.72-2.63V181.68h5.71v-2.26H410V174.2Z"/></clipPath><linearGradient id="linear-gradient-48" x1="-11.33" y1="541.27" x2="-6.52" y2="541.27" gradientTransform="matrix(-94.95, 0, 0, 94.95, -587.89, -51207.74)" xlink:href="#linear-gradient"/><clipPath id="clip-path-16"><path class="cls-8" d="M425.66,180.06A6.75,6.75,0,0,0,422.8,183v-3.55h-2.67v20.83h2.67V188.88a7.87,7.87,0,0,1,1.8-5.6,6.23,6.23,0,0,1,4.8-1.91,6,6,0,0,1,4.63,1.8,7.25,7.25,0,0,1,1.7,5.18v11.9h2.63v-12.2q0-4.4-2.37-6.7A8.34,8.34,0,0,0,429.9,179a8.69,8.69,0,0,0-4.24,1"/></clipPath><linearGradient id="linear-gradient-50" x1="-11.33" y1="541.29" x2="-6.52" y2="541.29" gradientTransform="matrix(-94.95, 0, 0, 94.95, -586.51, -51207.59)" xlink:href="#linear-gradient"/><clipPath id="clip-path-17"><path class="cls-9" d="M448.08,183.32a7.31,7.31,0,0,1,5.08-1.91,8.07,8.07,0,0,1,3.66.84,6.27,6.27,0,0,1,2.65,2.48,7.31,7.31,0,0,1,.93,4H445.76a7.62,7.62,0,0,1,2.32-5.37m-.11-2.9a9,9,0,0,0-3.62,3.74,11.93,11.93,0,0,0-1.3,5.68,11.63,11.63,0,0,0,1.32,5.66,9.21,9.21,0,0,0,3.64,3.73,10.49,10.49,0,0,0,5.26,1.33,9.91,9.91,0,0,0,6.27-1.93,8.82,8.82,0,0,0,3.27-5H460a6,6,0,0,1-2.35,3.4,7.42,7.42,0,0,1-4.37,1.25,8,8,0,0,1-3.66-.85,6.72,6.72,0,0,1-2.7-2.54,8.29,8.29,0,0,1-1.15-4H463c0-.49.07-1.18.07-2.1a10,10,0,0,0-1.2-4.87,9,9,0,0,0-3.43-3.48,10.13,10.13,0,0,0-5.21-1.3,10.65,10.65,0,0,0-5.3,1.3"/></clipPath><linearGradient id="linear-gradient-52" x1="-11.33" y1="541.3" x2="-6.52" y2="541.3" gradientTransform="matrix(-94.95, 0, 0, 94.95, -586.44, -51208)" xlink:href="#linear-gradient"/><clipPath id="clip-path-18"><path class="cls-10" d="M473.35,180.11a6.61,6.61,0,0,0-2.69,3v-3.7H468v20.83h2.67V188.62c0-2.44.59-4.19,1.76-5.23a6.74,6.74,0,0,1,4.65-1.56h.73V179a8.65,8.65,0,0,0-4.45,1.07"/></clipPath><linearGradient id="linear-gradient-54" x1="-11.33" y1="541.3" x2="-6.52" y2="541.3" gradientTransform="matrix(-94.95, 0, 0, 94.95, -586.74, -51208.38)" xlink:href="#linear-gradient"/></defs><polygon class="cls-19" points="491.81 107.66 478.71 120.48 484.96 135.46 504.19 135.46 491.81 107.66"/><polygon class="cls-19" points="485.93 97.56 473.59 109.61 457.08 73.17 430.67 135.42 411.27 135.42 455.74 32.31 485.93 97.56"/><polygon class="cls-19" points="249.41 117.79 231.72 135.14 231.72 31.38 249.41 48.7 249.41 117.79"/><polygon class="cls-19" points="271.27 31.93 271.27 119.39 288.97 102.08 288.97 48.62 271.27 31.93"/><polygon class="cls-19" points="324.31 118.05 324.31 135.38 271.28 135.38 288.97 118.05 324.31 118.05"/><polygon class="cls-19" points="345.23 31.93 345.23 119.42 362.92 102.1 362.92 48.62 345.23 31.93"/><polygon class="cls-19" points="362.92 118.07 345.23 135.38 398.26 135.38 398.26 118.06 362.92 118.07"/><polygon class="cls-19" points="209.4 48.7 209.4 118.05 191.71 135.13 191.71 91.96 156.37 92.08 156.37 117.77 138.67 135.13 138.67 91.96 156.37 74.63 191.71 74.59 191.71 31.38 209.4 48.7"/><polygon class="cls-19" points="156.37 31.54 156.37 58.73 138.88 75.85 138.88 48.54 156.37 31.54"/><path class="cls-19" d="M559.52,50h-13a29.54,29.54,0,0,1,3.82,9.56h9.21V77h-9.89A33.76,33.76,0,0,1,545,86.44c-4,5.86-8.73,10-14.8,12.46l20.75,36.6-20.21.05L506.19,84.12l10.35.11a17.41,17.41,0,0,0,17.24-17.39,16.87,16.87,0,0,0-17.24-16.77h-26.1l-8.2-17.74,77.28,0Z"/><path class="cls-19" d="M35.84,79a33.08,33.08,0,0,0,25.4,35.73,32.78,32.78,0,0,0,7.52.87,33.16,33.16,0,0,0,19.63-6.45l15,11.52a51.4,51.4,0,0,1-55.34,9l-4.46,5.08a17.78,17.78,0,0,1-25.15,1.61l14.6-16.71a51.54,51.54,0,0,1,68.06-77.29l.7-.79a17.92,17.92,0,0,1,25.25-1.54L113,56l-13.18,15A33.51,33.51,0,0,0,88.89,56.22,33.09,33.09,0,0,0,35.84,79"/><polygon class="cls-1" points="120.62 173.59 113.72 187.44 106.77 173.59 103.76 173.59 112.38 189.87 112.38 200.25 115.05 200.25 115.05 189.87 123.6 173.59 120.62 173.59"/><g class="cls-20"><rect class="cls-21" x="103.46" y="173.37" width="20.44" height="27.1" transform="translate(-4.19 2.61) rotate(-1.29)"/></g><path class="cls-2" d="M132.81,197.29a6.89,6.89,0,0,1-2.79-2.82,10.73,10.73,0,0,1,0-9.26,6.88,6.88,0,0,1,2.8-2.83,8.29,8.29,0,0,1,7.63,0,7,7,0,0,1,2.82,2.83,9.27,9.27,0,0,1,1.08,4.63,9.09,9.09,0,0,1-1.1,4.63,7,7,0,0,1-2.83,2.82,8,8,0,0,1-3.81.93,7.8,7.8,0,0,1-3.8-.93m-1.43-16.85a9.58,9.58,0,0,0-3.74,3.73,12.4,12.4,0,0,0,0,11.33,9.42,9.42,0,0,0,3.7,3.73,10.57,10.57,0,0,0,5.29,1.33,10.89,10.89,0,0,0,5.33-1.33,9.53,9.53,0,0,0,3.78-3.75,12.4,12.4,0,0,0,0-11.31,9.26,9.26,0,0,0-3.74-3.73,10.78,10.78,0,0,0-5.31-1.32,10.66,10.66,0,0,0-5.3,1.32"/><g class="cls-22"><rect class="cls-23" x="126.02" y="178.89" width="21.3" height="21.9" transform="translate(-4.25 3.13) rotate(-1.29)"/></g><path class="cls-11" d="M167.34,179.42v11.33a7.92,7.92,0,0,1-1.79,5.61,6.3,6.3,0,0,1-4.81,1.91,6,6,0,0,1-4.63-1.8,7.25,7.25,0,0,1-1.7-5.18V179.42h-2.64v12.17c0,2.92.8,5.16,2.37,6.69a8.34,8.34,0,0,0,6.11,2.31,9,9,0,0,0,4.27-1,6.46,6.46,0,0,0,2.82-3v3.66H170V179.42Z"/><g class="cls-24"><rect class="cls-25" x="151.54" y="179.22" width="18.71" height="21.57" transform="translate(-4.25 3.68) rotate(-1.29)"/></g><path class="cls-12" d="M181.47,180.11a6.55,6.55,0,0,0-2.69,3v-3.7h-2.67v20.83h2.67V188.62c0-2.44.58-4.19,1.75-5.23a6.78,6.78,0,0,1,4.66-1.56h.72V179a8.64,8.64,0,0,0-4.44,1.07"/><g class="cls-26"><rect class="cls-27" x="175.87" y="178.93" width="10.28" height="21.42" transform="translate(-4.23 4.13) rotate(-1.29)"/></g><polygon class="cls-13" points="200.37 173.59 200.37 200.25 203.04 200.25 203.04 187.97 212.96 187.97 212.96 185.76 203.04 185.76 203.04 175.8 214.78 175.8 214.78 173.59 200.37 173.59"/><g class="cls-28"><rect class="cls-29" x="200.07" y="173.43" width="15.02" height="26.98" transform="translate(-4.17 4.73) rotate(-1.29)"/></g><path class="cls-14" d="M219.17,200.25h2.67V179.42h-2.67Zm0-28.13a1.87,1.87,0,0,0-.57,1.39,1.9,1.9,0,0,0,.57,1.41,1.92,1.92,0,0,0,2.75,0,1.9,1.9,0,0,0,.57-1.41,1.87,1.87,0,0,0-.57-1.39,2,2,0,0,0-2.75,0"/><g class="cls-30"><rect class="cls-31" x="218.23" y="171.53" width="4.54" height="28.76" transform="translate(-4.14 5.02) rotate(-1.29)"/></g><path class="cls-15" d="M233.43,180.06a6.81,6.81,0,0,0-2.86,2.91v-3.55H227.9v20.83h2.67V188.88a7.87,7.87,0,0,1,1.8-5.6,6.23,6.23,0,0,1,4.8-1.91,6,6,0,0,1,4.64,1.8,7.25,7.25,0,0,1,1.69,5.18v11.9h2.63v-12.2c0-2.93-.78-5.16-2.37-6.7a8.31,8.31,0,0,0-6.09-2.31,8.72,8.72,0,0,0-4.24,1"/><g class="cls-32"><rect class="cls-33" x="227.67" y="178.84" width="18.7" height="21.61" transform="translate(-4.22 5.4) rotate(-1.29)"/></g><path class="cls-16" d="M252.81,174.2v5.22h-2.9v2.26h2.9V194.6c0,2,.45,3.45,1.37,4.33a5.86,5.86,0,0,0,4.2,1.32h2.86V198H258.8a3.57,3.57,0,0,1-2.56-.73,3.66,3.66,0,0,1-.73-2.63V181.68h5.73v-2.26h-5.73V174.2Z"/><g class="cls-34"><rect class="cls-35" x="249.62" y="174.08" width="11.92" height="26.3" transform="translate(-4.16 5.81) rotate(-1.29)"/></g><path class="cls-17" d="M269.43,183.32a7.3,7.3,0,0,1,5.07-1.91,8.08,8.08,0,0,1,3.67.84,6.27,6.27,0,0,1,2.65,2.48,7.31,7.31,0,0,1,.93,4H267.11a7.62,7.62,0,0,1,2.32-5.37m-.11-2.9a9,9,0,0,0-3.62,3.74,11.93,11.93,0,0,0-1.3,5.68,11.63,11.63,0,0,0,1.32,5.66,9.27,9.27,0,0,0,3.64,3.73,10.49,10.49,0,0,0,5.26,1.33,9.91,9.91,0,0,0,6.27-1.93,8.76,8.76,0,0,0,3.26-5h-2.82a5.93,5.93,0,0,1-2.34,3.4,7.42,7.42,0,0,1-4.37,1.25,8,8,0,0,1-3.66-.85,6.81,6.81,0,0,1-2.71-2.54,8.4,8.4,0,0,1-1.14-4h17.27a18.85,18.85,0,0,0,.08-2.1,10,10,0,0,0-1.2-4.87,9,9,0,0,0-3.43-3.48,10.13,10.13,0,0,0-5.21-1.3,10.62,10.62,0,0,0-5.3,1.3"/><g class="cls-36"><rect class="cls-37" x="264.16" y="178.9" width="20.54" height="21.88" transform="translate(-4.21 6.24) rotate(-1.29)"/></g><path class="cls-18" d="M293,180.44a9.26,9.26,0,0,0-3.58,3.73,13,13,0,0,0,0,11.33,9.26,9.26,0,0,0,3.58,3.73,10.3,10.3,0,0,0,5.23,1.33,10,10,0,0,0,6.33-1.95,8.74,8.74,0,0,0,3.24-5.15H305a5.9,5.9,0,0,1-2.31,3.56,7.3,7.3,0,0,1-4.41,1.28,7.51,7.51,0,0,1-3.77-1,6.64,6.64,0,0,1-2.65-2.86,10,10,0,0,1-1-4.65,9.85,9.85,0,0,1,1-4.63,6.67,6.67,0,0,1,2.65-2.85,7.51,7.51,0,0,1,3.77-1,7.37,7.37,0,0,1,4.41,1.28,5.89,5.89,0,0,1,2.31,3.52h2.85a8.64,8.64,0,0,0-3.22-5.18,10.12,10.12,0,0,0-6.35-1.91,10.29,10.29,0,0,0-5.23,1.32"/><g class="cls-38"><rect class="cls-39" x="287.89" y="178.9" width="20.16" height="21.88" transform="translate(-4.21 6.77) rotate(-1.29)"/></g><path class="cls-3" d="M312.73,172v28.22h2.66V188.88a7.87,7.87,0,0,1,1.8-5.6,6.23,6.23,0,0,1,4.8-1.91,6,6,0,0,1,4.63,1.8,7.25,7.25,0,0,1,1.7,5.18v11.9H331v-12.2a10.41,10.41,0,0,0-1.09-5,7.09,7.09,0,0,0-3-3,9.58,9.58,0,0,0-8.58.05,6.9,6.9,0,0,0-2.92,2.89V172Z"/><g class="cls-40"><rect class="cls-41" x="312.41" y="171.83" width="18.86" height="28.63" transform="matrix(1, -0.02, 0.02, 1, -4.12, 7.31)"/></g><path class="cls-4" d="M348.17,175.84h5.37q3.29,0,4.77,1.37a5.25,5.25,0,0,1,1.49,4c0,3.56-2.08,5.33-6.26,5.33h-5.37Zm-2.68-2.25v26.66h2.68V188.88h5.37c3,0,5.25-.69,6.75-2.09a7.94,7.94,0,0,0,0-11.1q-2.26-2.1-6.73-2.1Z"/><g class="cls-42"><rect class="cls-43" x="345.2" y="173.4" width="17.65" height="27.04" transform="translate(-4.13 8.04) rotate(-1.29)"/></g><path class="cls-5" d="M372.27,197.21a7.13,7.13,0,0,1-2.77-2.93,9.58,9.58,0,0,1-1-4.48,9.41,9.41,0,0,1,1-4.48,7.06,7.06,0,0,1,2.77-2.88,7.93,7.93,0,0,1,4-1,7.65,7.65,0,0,1,3.9,1,7.44,7.44,0,0,1,2.81,2.94,10,10,0,0,1,0,8.85,7.37,7.37,0,0,1-2.81,2.94,7.65,7.65,0,0,1-3.9,1,7.74,7.74,0,0,1-4-1m-1.66-16.77a9.19,9.19,0,0,0-3.55,3.73,13.07,13.07,0,0,0,0,11.28,9.36,9.36,0,0,0,3.55,3.77,9.85,9.85,0,0,0,5.09,1.34,9.26,9.26,0,0,0,5.14-1.4,8.36,8.36,0,0,0,3.14-3.53v4.62h2.67V179.42H384V184a8,8,0,0,0-3.11-3.51,9.4,9.4,0,0,0-5.13-1.37,10,10,0,0,0-5.13,1.32"/><g class="cls-44"><rect class="cls-45" x="365.54" y="178.89" width="21.34" height="21.9" transform="translate(-4.19 8.54) rotate(-1.29)"/></g><path class="cls-6" d="M398.11,180.11a6.55,6.55,0,0,0-2.69,3v-3.7h-2.67v20.83h2.67V188.62c0-2.44.58-4.19,1.75-5.23a6.74,6.74,0,0,1,4.65-1.56h.73V179a8.61,8.61,0,0,0-4.44,1.07"/><g class="cls-46"><rect class="cls-47" x="392.51" y="178.93" width="10.28" height="21.42" transform="translate(-4.18 9.02) rotate(-1.29)"/></g><path class="cls-7" d="M407.32,174.2v5.22h-2.9v2.26h2.9V194.6c0,2,.46,3.45,1.37,4.33a5.85,5.85,0,0,0,4.19,1.32h2.86V198H413.3a3.56,3.56,0,0,1-2.55-.73,3.66,3.66,0,0,1-.72-2.63V181.68h5.71v-2.26H410V174.2Z"/><g class="cls-48"><rect class="cls-49" x="404.13" y="174.08" width="11.91" height="26.3" transform="matrix(1, -0.02, 0.02, 1, -4.12, 9.29)"/></g><path class="cls-8" d="M425.66,180.06A6.75,6.75,0,0,0,422.8,183v-3.55h-2.67v20.83h2.67V188.88a7.87,7.87,0,0,1,1.8-5.6,6.23,6.23,0,0,1,4.8-1.91,6,6,0,0,1,4.63,1.8,7.25,7.25,0,0,1,1.7,5.18v11.9h2.63v-12.2q0-4.4-2.37-6.7A8.34,8.34,0,0,0,429.9,179a8.69,8.69,0,0,0-4.24,1"/><g class="cls-50"><rect class="cls-51" x="419.89" y="178.84" width="18.7" height="21.61" transform="matrix(1, -0.02, 0.02, 1, -4.17, 9.74)"/></g><path class="cls-9" d="M448.08,183.32a7.31,7.31,0,0,1,5.08-1.91,8.07,8.07,0,0,1,3.66.84,6.27,6.27,0,0,1,2.65,2.48,7.31,7.31,0,0,1,.93,4H445.76a7.62,7.62,0,0,1,2.32-5.37m-.11-2.9a9,9,0,0,0-3.62,3.74,11.93,11.93,0,0,0-1.3,5.68,11.63,11.63,0,0,0,1.32,5.66,9.21,9.21,0,0,0,3.64,3.73,10.49,10.49,0,0,0,5.26,1.33,9.91,9.91,0,0,0,6.27-1.93,8.82,8.82,0,0,0,3.27-5H460a6,6,0,0,1-2.35,3.4,7.42,7.42,0,0,1-4.37,1.25,8,8,0,0,1-3.66-.85,6.72,6.72,0,0,1-2.7-2.54,8.29,8.29,0,0,1-1.15-4H463c0-.49.07-1.18.07-2.1a10,10,0,0,0-1.2-4.87,9,9,0,0,0-3.43-3.48,10.13,10.13,0,0,0-5.21-1.3,10.65,10.65,0,0,0-5.3,1.3"/><g class="cls-52"><rect class="cls-53" x="442.81" y="178.9" width="20.54" height="21.88" transform="translate(-4.17 10.28) rotate(-1.29)"/></g><path class="cls-10" d="M473.35,180.11a6.61,6.61,0,0,0-2.69,3v-3.7H468v20.83h2.67V188.62c0-2.44.59-4.19,1.76-5.23a6.74,6.74,0,0,1,4.65-1.56h.73V179a8.65,8.65,0,0,0-4.45,1.07"/><g class="cls-54"><rect class="cls-55" x="467.76" y="178.93" width="10.28" height="21.42" transform="translate(-4.16 10.72) rotate(-1.29)"/></g></svg>