<svg width="35" height="30" viewBox="0 0 35 30" fill="none" xmlns="http://www.w3.org/2000/svg">
<path d="M0.586073 14.1112C0.674294 13.5533 0.748399 12.9937 0.850735 12.4393C1.23205 10.4397 2.04165 8.54468 3.22475 6.88259C3.4506 6.56206 3.71879 6.49113 3.97905 6.66978C4.2393 6.84844 4.27018 7.12868 4.04786 7.44484C2.81484 9.16934 2.01755 11.1629 1.72323 13.2573C1.23713 16.7534 1.97466 19.9885 3.99315 22.9004C5.89255 25.6389 8.46772 27.5148 11.716 28.3118C17.0375 29.6167 21.6365 28.2435 25.3903 24.2762C27.2685 22.2926 28.3518 19.8878 28.7585 17.1957C28.9129 16.1701 28.9835 15.135 28.8397 14.1068C28.1966 14.2005 27.564 14.3047 26.9271 14.3809C26.0113 14.4913 25.1044 14.3906 24.2072 14.2058C24.1086 14.1779 24.0045 14.1748 23.9044 14.1968C23.8043 14.2188 23.7113 14.2652 23.6338 14.3319C23.0356 14.8135 22.426 15.2795 21.8244 15.7568C21.5818 15.9485 21.3215 16.037 21.0304 15.8864C20.7251 15.727 20.6563 15.4389 20.689 15.1297C20.7578 14.479 20.8336 13.8283 20.9263 13.1802C20.9624 12.9245 20.8901 12.773 20.6775 12.6119C19.393 11.6415 18.4861 10.4023 18.1553 8.81542C17.6683 6.47799 18.4623 4.5478 20.1543 2.92762C20.2249 2.86019 20.2982 2.79362 20.3687 2.72531C20.3749 2.71918 20.3687 2.70517 20.3802 2.66839C19.4793 2.28146 18.5324 2.01012 17.5624 1.86093C13.5043 1.23388 9.84309 2.15607 6.62302 4.70718C6.25426 4.99969 5.91726 5.33336 5.56967 5.65039C5.29354 5.90086 4.99446 5.92187 4.78537 5.7003C4.57629 5.47873 4.60894 5.19586 4.86302 4.94626C7.08266 2.75684 9.7231 1.38013 12.8135 0.874814C15.6965 0.403651 18.4843 0.734691 21.1592 1.91435C21.3524 2.00193 21.4794 1.94413 21.6417 1.86005C24.7771 0.241634 27.8931 0.262652 30.9852 1.98091C31.0923 2.03587 31.191 2.10576 31.2781 2.18847C31.3615 2.26306 31.4137 2.36606 31.4241 2.47704C31.4346 2.58801 31.4026 2.69883 31.3346 2.78749C31.1899 2.9968 30.9817 3.08438 30.732 2.97403C30.6332 2.92693 30.5374 2.8737 30.4453 2.81465C27.4132 0.996548 23.1953 1.4029 20.734 3.75434C19.7291 4.71769 19.1098 5.87195 19.0269 7.2653C18.9387 8.69981 19.4318 9.95216 20.4022 11.0022C20.7781 11.4086 21.2306 11.7492 21.6691 12.0934C21.8994 12.2738 22.022 12.4569 21.9823 12.7564C21.9047 13.3169 21.85 13.8791 21.7776 14.5079C22.3149 14.0954 22.8169 13.7285 23.2968 13.3353C23.5535 13.1251 23.8058 13.0962 24.1208 13.1662C26.6898 13.7416 29.0858 13.3861 31.204 11.7606C32.4673 10.7912 33.249 9.51603 33.3813 7.90724C33.4836 6.6584 33.0972 5.54267 32.3641 4.5329C32.3121 4.46197 32.2565 4.39453 32.2053 4.32359C31.9936 4.02846 32.0068 3.75347 32.2397 3.56868C32.4726 3.38389 32.7532 3.42243 32.9852 3.70531C33.6027 4.46022 34.0606 5.30796 34.2485 6.26605C34.7867 9.00546 33.7121 11.1047 31.5534 12.7362C31.1123 13.0699 30.6032 13.323 30.1057 13.5761C29.8957 13.6829 29.8189 13.7828 29.841 14.0184C30.4347 20.4544 26.5018 26.6093 20.3608 28.8679C12.4271 31.7851 3.68085 27.5052 1.21684 19.4735C0.928361 18.5321 0.829552 17.5337 0.641641 16.5616C0.623115 16.4661 0.599298 16.3716 0.578125 16.277L0.586073 14.1112Z" fill="#F5FBFE"/>
<path d="M15.8914 8.49562C15.835 9.07012 15.8032 9.64814 15.715 10.2183C15.5835 11.0861 15.041 11.6353 14.2099 11.8595C13.8218 11.9637 13.6806 12.1949 13.5986 12.5268C13.408 13.3088 13.4627 14.0865 13.6533 14.8598C13.9109 15.9107 14.2602 16.9118 14.9951 17.7385C15.1177 17.8769 15.2598 17.996 15.3965 18.1256C15.5941 18.3165 15.8138 18.3612 16.0882 18.3007C16.9527 18.1089 17.745 18.3007 18.2937 18.9943C18.9309 19.7856 19.5035 20.6261 20.006 21.5078C20.5354 22.458 20.2248 23.3399 19.2668 23.8724C17.8173 24.6746 16.3016 24.6606 14.7781 24.1009C12.9634 23.431 11.6798 22.1427 10.6952 20.5366C9.00578 17.7823 8.15446 14.7968 8.32649 11.5626C8.42971 9.60785 9.13193 7.89834 10.719 6.65125C11.5988 5.94183 12.7045 5.56705 13.8376 5.5942C14.9678 5.61434 15.7247 6.29482 15.827 7.41492C15.8597 7.77224 15.8323 8.1348 15.8323 8.49474L15.8914 8.49562ZM14.8742 8.48599H14.8548C14.8548 8.24603 14.861 8.00519 14.8548 7.76523C14.8275 6.86231 14.4137 6.48924 13.5121 6.58294C12.4826 6.68804 11.5871 7.09351 10.8655 7.84667C9.77067 8.99393 9.33748 10.4013 9.30308 11.94C9.23868 14.8414 10.0194 17.5204 11.5324 19.9971C12.4146 21.4421 13.5615 22.6034 15.198 23.198C16.3616 23.6201 17.5218 23.6359 18.6501 23.0807C19.2676 22.7785 19.4079 22.4177 19.0586 21.8336C18.6142 21.1075 18.1331 20.4042 17.617 19.7265C17.28 19.2755 16.7948 19.1134 16.2373 19.2886C15.7353 19.4462 15.2951 19.3105 14.9139 19.0066C14.6078 18.7756 14.3316 18.5079 14.0917 18.2096C13.026 16.818 12.524 15.2189 12.4976 13.4884C12.4896 12.9375 12.6449 12.3691 12.8072 11.8341C12.9493 11.3673 13.2933 11.0616 13.8182 10.953C14.4561 10.8208 14.7296 10.4617 14.7887 9.79789C14.8231 9.3565 14.8451 8.92037 14.8742 8.48511V8.48599Z" fill="#F5FBFE"/>
<path d="M26.4804 9.17787C25.435 9.17787 24.3905 9.17787 23.345 9.17787C23.2154 9.17787 23.0477 9.18925 22.9657 9.11832C22.8307 9.00096 22.6693 8.8188 22.6719 8.66729C22.6746 8.51579 22.8483 8.34764 22.9798 8.22328C23.0442 8.16198 23.188 8.17162 23.2965 8.17074C25.4303 8.17074 27.5644 8.17074 29.6987 8.17074C29.7958 8.17074 29.9254 8.16285 29.9845 8.21802C30.1169 8.34326 30.3048 8.50616 30.303 8.65066C30.303 8.81355 30.1354 9.00097 29.996 9.12358C29.9166 9.19451 29.7446 9.17787 29.6149 9.17787C28.5686 9.17963 27.525 9.17787 26.4804 9.17787Z" fill="#F5FBFE"/>
<path d="M26.5057 6.56894H23.2742C22.871 6.56894 22.6399 6.37802 22.6487 6.06187C22.6575 5.76061 22.8798 5.58633 23.2706 5.58633C25.415 5.58633 27.5596 5.58633 29.7046 5.58633C30.1139 5.58633 30.338 5.77112 30.3283 6.09078C30.3186 6.39467 30.0981 6.56807 29.7108 6.56894H26.5057Z" fill="#F5FBFE"/>
</svg>
