<svg width="42" height="31" viewBox="0 0 42 31" fill="none" xmlns="http://www.w3.org/2000/svg">
<path opacity="0.2" d="M16.45 4.50351C16.45 4.50351 16.1087 5.05818 15.426 6.16751C14.7433 7.19151 13.9327 8.51418 12.994 10.1355C12.0553 11.6715 11.2447 13.2075 10.562 14.7435C11.074 14.7435 11.8847 15.2128 12.994 16.1515C14.1887 17.0902 15.2553 18.1568 16.194 19.3515C17.218 20.4608 17.73 21.3995 17.73 22.1675C17.73 24.5568 16.9193 26.4768 15.298 27.9275C13.762 29.3782 11.7993 30.1035 9.41 30.1035C7.106 30.1035 5.058 29.2502 3.266 27.5435C1.55933 25.8368 0.706 23.7888 0.706 21.3995C0.706 18.9248 1.26067 16.4928 2.37 14.1035C3.47933 11.6288 4.75933 9.36751 6.21 7.31951C7.746 5.27151 9.06867 3.65018 10.178 2.45551C11.3727 1.26085 11.97 0.663513 11.97 0.663513L16.45 4.50351ZM40.13 4.50351C40.13 4.50351 39.7887 5.05818 39.106 6.16751C38.4233 7.19151 37.6127 8.51418 36.674 10.1355C35.7353 11.6715 34.9247 13.2075 34.242 14.7435C34.754 14.7435 35.5647 15.2128 36.674 16.1515C37.8687 17.0902 38.9353 18.1568 39.874 19.3515C40.898 20.4608 41.41 21.3995 41.41 22.1675C41.41 24.5568 40.5993 26.4768 38.978 27.9275C37.442 29.3782 35.4793 30.1035 33.09 30.1035C30.786 30.1035 28.738 29.2502 26.946 27.5435C25.2393 25.8368 24.386 23.7888 24.386 21.3995C24.386 18.9248 24.9407 16.4928 26.05 14.1035C27.1593 11.6288 28.4393 9.36751 29.89 7.31951C31.426 5.27151 32.7487 3.65018 33.858 2.45551C35.0527 1.26085 35.65 0.663513 35.65 0.663513L40.13 4.50351Z" fill="#1E3667"/>
</svg>
